<?xml version="1.0" encoding="UTF-8" standalone="no" ?>
<!DOCTYPE svg PUBLIC "-//W3C//DTD SVG 1.1//EN" "http://www.w3.org/Graphics/SVG/1.1/DTD/svg11.dtd">
<svg xmlns="http://www.w3.org/2000/svg" xmlns:xlink="http://www.w3.org/1999/xlink" version="1.1" width="48" height="48" viewBox="0 0 96 96" xml:space="preserve">
<desc>Created with Fabric.js 5.2.4</desc>
<defs>
</defs>
<g transform="matrix(1 0 0 1 48 48)" id="c8524646-fc38-4c97-bdfa-25f7070a6845">
</g>
<g transform="matrix(1 0 0 1 48 48)" id="075b9f61-f8cf-4767-a183-dd1c04cf3dab">
</g>
<g transform="matrix(1.46 0 0 1.46 48 48)">
<g style="" vector-effect="non-scaling-stroke">
		<g transform="matrix(1 0 0 1 15 10)">
<polygon style="stroke: none; stroke-width: 1; stroke-dasharray: none; stroke-linecap: butt; stroke-dashoffset: 0; stroke-linejoin: miter; stroke-miterlimit: 4; fill: rgb(74,78,255); fill-rule: nonzero; opacity: 1;" vector-effect="non-scaling-stroke"  points="-15,2.5 15,13.5 5,-13.5 " />
</g>
		<g transform="matrix(1 0 0 1 0 -3.5)">
<ellipse style="stroke: none; stroke-width: 1; stroke-dasharray: none; stroke-linecap: butt; stroke-dashoffset: 0; stroke-linejoin: miter; stroke-miterlimit: 4; fill: rgb(74,78,255); fill-rule: nonzero; opacity: 1;" vector-effect="non-scaling-stroke"  cx="0" cy="0" rx="30" ry="20" />
</g>
		<g transform="matrix(1 0 0 1 -13 -3.5)">
<circle style="stroke: none; stroke-width: 1; stroke-dasharray: none; stroke-linecap: butt; stroke-dashoffset: 0; stroke-linejoin: miter; stroke-miterlimit: 4; fill: rgb(224,228,255); fill-rule: nonzero; opacity: 1;" vector-effect="non-scaling-stroke"  cx="0" cy="0" r="3" />
</g>
		<g transform="matrix(1 0 0 1 0 -3.5)">
<circle style="stroke: none; stroke-width: 1; stroke-dasharray: none; stroke-linecap: butt; stroke-dashoffset: 0; stroke-linejoin: miter; stroke-miterlimit: 4; fill: rgb(224,228,255); fill-rule: nonzero; opacity: 1;" vector-effect="non-scaling-stroke"  cx="0" cy="0" r="3" />
</g>
		<g transform="matrix(1 0 0 1 13 -3.5)">
<circle style="stroke: none; stroke-width: 1; stroke-dasharray: none; stroke-linecap: butt; stroke-dashoffset: 0; stroke-linejoin: miter; stroke-miterlimit: 4; fill: rgb(224,228,255); fill-rule: nonzero; opacity: 1;" vector-effect="non-scaling-stroke"  cx="0" cy="0" r="3" />
</g>
</g>
</g>
</svg>